PathFileType	4	(X/Y/Z)	RBDS05\RBDS05runT25.trc
DataRate	CameraRate	NumFrames	NumMarkers	Units	OrigDataRate	OrigDataStartFrame	OrigNumFrames
150.000000	150.000000	5	33	mm	150.000000	1125	4500
Frame#	Time	L.ASIS			L.Heel.Bottom			L.Heel.Lateral			L.Heel.Top			L.Iliac.Crest			L.MT1			L.MT5			L.PSIS			L.Shank.Bottom.Lateral			L.Shank.Bottom.Medial			L.Shank.Top.Lateral			L.Shank.Top.Medial			L.Thigh.Bottom.Lateral			L.Thigh.Bottom.Medial			L.Thigh.Top.Lateral			L.Thigh.Top.Medial			R.ASIS			R.ASY			R.Heel.Bottom			R.Heel.Lateral			R.Heel.Top			R.Iliac.Crest			R.MT1			R.MT5			R.PSIS			R.Shank.Bottom.Lateral			R.Shank.Bottom.Medial			R.Shank.Top.Lateral			R.Shank.Top.Medial			R.Thigh.Bottom.Lateral			R.Thigh.Bottom.Medial			R.Thigh.Top.Lateral			R.Thigh.Top.Medial			
		X1	Y1	Z1	X2	Y2	Z2	X3	Y3	Z3	X4	Y4	Z4	X5	Y5	Z5	X6	Y6	Z6	X7	Y7	Z7	X8	Y8	Z8	X9	Y9	Z9	X10	Y10	Z10	X11	Y11	Z11	X12	Y12	Z12	X13	Y13	Z13	X14	Y14	Z14	X15	Y15	Z15	X16	Y16	Z16	X17	Y17	Z17	X18	Y18	Z18	X19	Y19	Z19	X20	Y20	Z20	X21	Y21	Z21	X22	Y22	Z22	X23	Y23	Z23	X24	Y24	Z24	X25	Y25	Z25	X26	Y26	Z26	X27	Y27	Z27	X28	Y28	Z28	X29	Y29	Z29	X30	Y30	Z30	X31	Y31	Z31	X32	Y32	Z32	X33	Y33	Z33	

1126	7.500000000000001	2256.357524334622	939.92469865855	914.1131435924724	2157.38678499839	27.18689697603128	985.2166865180297	2188.116383441005	47.52818618133841	943.1329658058329	2170.906230904	75.52817122551022	990.1482364410472	2195.82761946331	1002.694415514754	872.0744359105632	2364.774091143865	45.42930660011245	1016.935599889608	2335.226337392256	40.87388495510353	915.7799352547039	2100.581924380117	975.7930587752659	973.6836996597011	2243.82257798288	158.6391424887186	924.5077560717447	2201.218351852931	165.335618184166	952.2298869221371	2248.179561660354	237.065114153863	905.663213501379	2205.552733566765	248.1505623879073	935.6033549366114	2272.405429887704	591.5703450350321	869.4566763100858	2212.891935257786	565.9807746998466	903.215100091249	2220.328371676097	689.0217683328281	859.9819484301271	2167.382756267605	666.6194586524939	896.8230825945672	2250.847588387452	942.2127056119583	1138.990711285923	1888.440442247946	172.8452218744634	1092.121094187663	1771.641856925702	298.8916820077798	1033.126344553671	1784.868361449734	286.8172672676631	1079.094375954998	1817.876713892162	309.2249274520696	1043.482868332522	2202.634696001036	990.5698853124741	1165.556885932425	1867.617647102957	114.900096782794	1049.293761721471	1829.462638085051	149.6065835577793	1141.0591340789	2102.651291681685	976.905980484762	1065.316357871267	1908.427268159444	317.3289737743444	1124.384099889072	1897.957220809468	348.1156778055399	1080.693483143725	1968.99845610547	368.9504770814592	1142.951810717764	1958.266266044521	397.5080758814283	1099.020675946547	2197.699153238105	553.4875275846305	1198.364881567887	2133.84809340029	543.7320228211157	1162.702348547838	2175.686821824462	661.9833057867179	1204.294716764072	2114.830936713706	652.2633832640422	1170.054920235368	
1127	7.506666666666667	2254.266652279695	936.3143267352361	913.1149120757358	2141.132889659808	27.97252215435995	985.4514426176745	2172.029527958625	48.24152760465743	943.5008575073699	2155.18423656239	76.18292339386251	990.6727497932708	2193.823166638619	997.1318060711346	871.4712661526925	2349.04056176925	44.11858114127315	1017.129469054734	2319.376224960864	40.49529541447183	915.9899830863714	2098.205528039646	971.0630858431891	974.3197058608315	2232.671042115456	157.8192536645159	924.7799398142079	2190.003359968447	166.2394817512928	951.9875957064808	2240.031352801133	235.9128063016377	905.4303655637507	2197.564899998375	248.7513756314535	934.8423593628571	2270.751092555772	588.4772708762171	867.9882844243926	2211.633436630123	562.7335660204764	902.3217786229961	2218.255531676973	685.7389476242865	858.7276890228783	2165.782812487089	663.2376412164075	896.2027317055247	2249.817252247767	938.2099966251411	1138.462440700554	1898.247972471715	173.3654989713713	1091.174528220229	1779.185673171301	299.083976855356	1035.94996942171	1793.444884685587	286.6440439724427	1081.492290542701	1825.561218377511	309.7020071632394	1045.449119528012	2201.061159288132	985.2552409571866	1165.826857066346	1876.935490835118	115.7179147410102	1048.123541225655	1840.388544656243	149.125201358476	1141.063054216274	2100.504539692466	971.6885732688668	1065.497612301895	1918.351909264536	316.4532170962337	1125.223330459168	1907.544982743085	348.0924456707711	1082.211026639135	1979.584116243334	367.2090949137969	1143.94699021445	1968.534025219834	396.6157219615754	1100.641240466784	2206.231566656758	549.9066159928486	1198.135960782494	2142.323776572344	538.4081243280281	1163.142628729816	2181.590244941595	657.8101948356997	1203.951826523349	2120.577595103342	646.4250958391038	1170.446148232984	
1128	7.513333333333334	2252.043861102534	933.0637940268726	912.1483949204461	2124.919830490245	28.5821200137487	985.5788058790233	2155.867064010347	48.84774304785837	943.717534228535	2139.218471646933	76.70559185947774	990.9826809464636	2191.300702239506	991.8134570260921	870.9523133075525	2333.078100687066	43.62000857143364	1017.144772377262	2303.319915655205	40.65340531170519	916.0565798197331	2095.768108221937	966.7031685060977	975.1045023449331	2220.802226077007	157.2104587029058	924.8872961582437	2178.19997528837	167.2595179547746	951.6655006891822	2230.99270797466	234.8924347628426	905.1047080346623	2188.779592461791	249.3861597051429	934.0609732557847	2268.23696227665	585.5025732160242	866.5789538336453	2209.480224547712	559.7714976662606	901.5221333734681	2215.626973625562	682.7196818235053	857.5844297016164	2163.580303317426	660.2817064530536	895.7247974925662	2248.67693599466	934.5359407141622	1138.017966493197	1908.956553141031	173.4884450576967	1090.24897951334	1787.366428407252	298.4968344761596	1038.984862810153	1802.695615312293	285.7443232481174	1084.064822454912	1833.827419832797	309.5366545525397	1047.595580617833	2199.235736070382	980.2946630543071	1166.174124620783	1887.318166621403	116.0678979271388	1047.016704134729	1852.363153475697	148.0600882042273	1141.111432339985	2098.318793327164	966.8737202414113	1065.803736028992	1928.855636865008	315.2831401001993	1126.082259689317	1917.553314708135	347.7165924969553	1083.766707143834	1990.563261491467	365.4030987778618	1144.867424324519	1979.058700115917	395.5963267343875	1102.192330007421	2214.830636005048	546.9901173983676	1197.622613063313	2150.979100876793	533.7611880798408	1163.196878323002	2187.529225304658	654.2175452199089	1203.407483926867	2126.422419080057	641.1537542277187	1170.630785886198	
1129	7.52	2249.747095756472	930.2225894590351	911.2267001539258	2108.700083538353	29.01364622865029	985.5987255351688	2139.621301348684	49.30812348637087	943.784430940113	2123.025743906426	77.09601064900276	991.0736204739144	2188.265907836878	986.9001633370185	870.5426934858001	2316.919648114642	43.68660546145792	1017.017428045373	2287.088183569258	41.12614953566069	915.9991553341513	2093.353900046493	962.8306596098362	976.0112918478993	2208.203873496886	156.7180755700147	924.8151528313534	2165.770172110157	168.2758484779801	951.2415869581971	2221.009157518051	233.9347156785387	904.6676034793238	2179.111897056755	249.9556356730543	933.234560697771	2264.777459943821	582.6615851477392	865.235493019012	2206.312437302923	557.1293540772989	900.7834171879991	2212.404441327058	680.0040169519091	856.5576729605003	2160.706888079196	657.8068257797246	895.3631109137602	2247.469612266517	931.2658530964919	1137.653587321515	1920.524258060584	173.2213860165389	1089.351368654884	1796.131607776628	297.0398845980857	1042.150792641882	1812.569793150591	284.0647283456334	1086.740064348749	1842.607432977668	308.658569056278	1049.845507733318	2197.213225837726	975.8314223348472	1166.575418549619	1898.751721348449	115.931350127701	1046.002977806353	1865.366992236205	146.4460858112029	1141.213081683136	2096.167522473666	962.5955802792296	1066.226552347594	1939.846078293478	313.8387411577157	1126.920867369854	1927.903298479536	346.9785172480187	1085.297429399657	2001.834347043704	363.5807241802854	1145.669214342885	1989.75088558513	394.4665320907013	1103.609843013044	2223.421704860559	544.8058536901385	1196.843558828531	2159.759046260239	529.8751541306615	1162.838621971099	2193.437008507592	651.275497646869	1202.685227107725	2132.318847441999	636.531106882094	1170.589810344698	
1130	7.526666666666667	2247.435145690618	927.8241662296202	910.3658489337892	2092.423719680929	29.27841781191139	985.5219795269354	2123.276731526982	49.60473649396163	943.7161409881897	2106.621311325771	77.36268932883839	990.9621243130709	2184.787536510314	982.5507847093253	870.261025547348	2300.592890876014	44.08393765438929	1016.790606532904	2270.703858388911	41.71997528005321	915.8420386714258	2091.042884052883	959.5536332493045	977.0051895064294	2194.891170498986	156.2696266242851	924.5675951027356	2152.700636002223	169.1983102091359	950.7116746395409	2210.065681770205	232.9936187643372	904.1139806570342	2168.516495877627	250.3913942035928	932.3520295550604	2260.324062798602	579.9830885677967	863.9597607020439	2202.050732829709	554.844332676329	900.0668255274404	2208.565462279863	677.6344372138387	855.6470531557916	2157.116495210975	655.8584566534274	895.0854156833653	2246.245636353157	928.46778313929	1137.357633581135	1932.904458412869	172.56999559313	1088.492193750132	1805.432371474678	294.6373238365997	1045.362126426311	1823.017665204829	281.5604602661061	1089.442998253768	1851.837550330699	307.0052771053253	1052.121732975132	2195.075481669532	971.9962459363832	1167.004435230968	1911.216917080427	115.2956681057327	1045.104667160698	1879.367617627764	144.3202243388349	1141.372103489311	2094.119349486788	958.9737539620543	1066.752467081883	1951.228737368454	312.1350215842272	1127.702182413387	1938.515123089462	345.8640988425293	1086.743036052082	2013.295437149209	361.7782494506227	1146.313877250718	2000.519977291952	393.2329065373629	1104.836266936862	2231.92631532504	543.4022979097721	1195.826135304365	2168.592475309231	526.8139983617436	1162.067306592068	2199.247706561501	649.0363327787595	1201.817402784922	2138.213737380407	632.6239235248215	1170.3208160861	
